<svg data-v-fde0c5aa="" xmlns="http://www.w3.org/2000/svg" viewBox="0 0 300 300" class="font"><!----><defs data-v-fde0c5aa=""><!----></defs><rect data-v-fde0c5aa="" fill="#f7eedf" x="0" y="0" width="300px" height="300px" class="logo-background-square"></rect><defs data-v-fde0c5aa=""><!----></defs><g data-v-fde0c5aa="" id="2c74bb93-6f5f-4f92-98a6-a877501fead6" fill="#000000" transform="matrix(3.413779856385098,0,0,3.413779856385098,48.19307198088765,116.45961193432616)"><path d="M-2.40 17.17L-2.40 17.17L-2.40 17.17Q-2.40 16.97-2.13 16.87L-2.13 16.87L-2.13 16.87Q-0.23 16.13 1.67 12.36L1.67 12.36L1.67 12.36Q3.16 9.41 4.01 6.14L4.01 6.14L4.01 6.14Q4.34 4.85 4.34 4.27L4.34 4.27L4.34 4.27Q4.34 4.06 4.25 4.06L4.25 4.06L4.25 4.06Q3.34 4.06 1.96 5.44L1.96 5.44L1.96 5.44Q1.83 5.58 1.66 5.58L1.66 5.58L1.66 5.58Q1.49 5.58 1.33 5.51L1.33 5.51L1.33 5.51Q1.17 5.44 1.04 5.33L1.04 5.33L1.04 5.33Q0.73 5.09 0.73 4.84L0.73 4.84L0.73 4.84Q0.73 4.59 0.89 4.38L0.89 4.38L0.89 4.38Q1.05 4.17 1.31 3.97L1.31 3.97L1.31 3.97Q1.58 3.77 1.92 3.61L1.92 3.61L1.92 3.61Q2.26 3.44 2.64 3.31L2.64 3.31L2.64 3.31Q3.43 3.04 3.86 3.04L3.86 3.04L3.86 3.04Q4.29 3.04 4.61 3.09L4.61 3.09L4.61 3.09Q4.93 3.14 5.22 3.27L5.22 3.27L5.22 3.27Q5.93 3.58 5.93 4.15L5.93 4.15L5.93 4.15Q5.93 5.17 5.29 7.42L5.29 7.42L5.29 7.42Q4.61 9.80 3.50 12.08L3.50 12.08L3.50 12.08Q1.90 15.28 0.12 16.68L0.12 16.68L0.12 16.68Q-0.92 17.50-1.85 17.50L-1.85 17.50L-1.85 17.50Q-2.19 17.50-2.35 17.32L-2.35 17.32L-2.35 17.32Q-2.40 17.25-2.40 17.17ZM6.62 13.21L6.62 13.21L6.62 13.21Q6.34 12.93 6.17 12.51L6.17 12.51L6.17 12.51Q6.01 12.09 6.00 11.52L6.00 11.52L6.00 11.52Q6.00 10.94 6.14 10.36L6.14 10.36L6.14 10.36Q6.29 9.77 6.56 9.22L6.56 9.22L6.56 9.22Q6.83 8.67 7.21 8.20L7.21 8.20L7.21 8.20Q7.59 7.72 8.05 7.36L8.05 7.36L8.05 7.36Q9.04 6.60 10.12 6.60L10.12 6.60L10.12 6.60Q11.53 6.60 12.02 7.83L12.02 7.83L12.02 7.83Q12.38 8.73 12.07 10.00L12.07 10.00L12.07 10.00Q11.78 11.17 11.01 12.15L11.01 12.15L11.01 12.15Q10.25 13.13 9.22 13.54L9.22 13.54L9.22 13.54Q8.70 13.74 8.20 13.74L8.20 13.74L8.20 13.74Q7.70 13.74 7.30 13.61L7.30 13.61L7.30 13.61Q6.91 13.48 6.62 13.21ZM7.93 9.89L7.93 9.89L7.93 9.89Q7.72 10.40 7.60 10.93L7.60 10.93L7.60 10.93Q7.49 11.46 7.49 11.94L7.49 11.94L7.49 11.94Q7.50 12.41 7.64 12.68L7.64 12.68L7.64 12.68Q7.78 12.95 8.09 12.95L8.09 12.95L8.09 12.95Q8.41 12.95 8.71 12.74L8.71 12.74L8.71 12.74Q9.02 12.52 9.30 12.17L9.30 12.17L9.30 12.17Q9.59 11.81 9.84 11.35L9.84 11.35L9.84 11.35Q10.10 10.88 10.29 10.38L10.29 10.38L10.29 10.38Q10.71 9.28 10.69 8.42L10.69 8.42L10.69 8.42Q10.69 7.67 10.38 7.46L10.38 7.46L10.38 7.46Q10.26 7.38 10.04 7.38L10.04 7.38L10.04 7.38Q9.82 7.38 9.53 7.58L9.53 7.58L9.53 7.58Q9.24 7.79 8.96 8.13L8.96 8.13L8.96 8.13Q8.67 8.47 8.40 8.93L8.40 8.93L8.40 8.93Q8.13 9.39 7.93 9.89ZM18.12 7.89L18.12 7.89L18.12 7.89Q17.91 7.89 17.52 8.30L17.52 8.30L17.52 8.30Q17.13 8.70 16.84 9.04L16.84 9.04L16.26 9.73L15.14 11.16L15.14 11.16Q14.75 11.92 14.52 12.41L14.52 12.41L14.15 13.21L14.15 13.21Q14.01 13.50 13.90 13.62L13.90 13.62L13.90 13.62Q13.79 13.74 13.61 13.74L13.61 13.74L13.61 13.74Q13.43 13.74 13.27 13.68L13.27 13.68L13.27 13.68Q13.10 13.61 12.97 13.51L12.97 13.51L12.97 13.51Q12.71 13.29 12.71 13.03L12.71 13.03L12.71 13.03Q12.71 12.93 12.87 12.63L12.87 12.63L13.13 12.07L13.13 12.07Q13.25 11.83 13.41 11.44L13.41 11.44L13.79 10.51L13.79 10.51Q14.60 8.49 14.60 7.90L14.60 7.90L14.60 7.90Q14.60 7.59 14.40 7.44L14.40 7.44L14.26 7.34L14.26 7.34Q14.19 7.29 14.19 7.17L14.19 7.17L14.19 7.17Q14.19 7.05 14.28 6.95L14.28 6.95L14.28 6.95Q14.38 6.84 14.53 6.75L14.53 6.75L14.53 6.75Q14.83 6.60 15.15 6.60L15.15 6.60L15.15 6.60Q15.46 6.60 15.63 6.67L15.63 6.67L15.63 6.67Q15.80 6.73 15.91 6.85L15.91 6.85L15.91 6.85Q16.17 7.09 16.17 7.35L16.17 7.35L16.17 7.35Q16.17 7.61 16.10 7.87L16.10 7.87L16.10 7.87Q16.04 8.13 15.94 8.40L15.94 8.40L15.94 8.40Q15.84 8.67 15.73 8.93L15.73 8.93L15.73 8.93Q15.62 9.19 15.53 9.39L15.53 9.39L15.39 9.68L15.39 9.68Q15.34 9.79 15.37 9.75L15.37 9.75L15.37 9.75Q16.13 8.70 16.37 8.39L16.37 8.39L16.84 7.82L16.84 7.82Q17.37 7.21 17.67 7.01L17.67 7.01L17.67 7.01Q18.28 6.60 18.63 6.60L18.63 6.60L18.63 6.60Q18.98 6.60 19.22 6.69L19.22 6.69L19.22 6.69Q19.46 6.77 19.63 6.94L19.63 6.94L19.63 6.94Q20.01 7.29 20.01 7.83L20.01 7.83L20.01 7.83Q20.01 8.37 19.76 8.96L19.76 8.96L19.76 8.96Q19.52 9.54 19.34 9.91L19.34 9.91L19.34 9.91Q19.15 10.27 18.99 10.65L18.99 10.65L18.99 10.65Q18.48 11.79 18.48 12.31L18.48 12.31L18.48 12.31Q18.48 12.54 18.85 12.54L18.85 12.54L18.85 12.54Q19.13 12.54 19.37 12.42L19.37 12.42L19.37 12.42Q19.61 12.30 19.67 12.30L19.67 12.30L19.67 12.30Q19.82 12.30 19.82 12.44L19.82 12.44L19.82 12.44Q19.82 13.05 19.20 13.46L19.20 13.46L19.20 13.46Q18.78 13.74 18.43 13.74L18.43 13.74L18.43 13.74Q18.08 13.74 17.85 13.67L17.85 13.67L17.85 13.67Q17.62 13.59 17.45 13.43L17.45 13.43L17.45 13.43Q17.04 13.06 17.04 12.41L17.04 12.41L17.04 12.41Q17.04 11.62 17.54 10.43L17.54 10.43L17.54 10.43Q17.90 9.62 18.05 9.32L18.05 9.32L18.29 8.83L18.29 8.83Q18.50 8.39 18.50 8.14L18.50 8.14L18.50 8.14Q18.50 7.89 18.12 7.89ZM29.94 12.41L29.94 12.12L29.94 12.12Q29.94 11.20 30.47 9.29L30.47 9.29L30.47 9.29Q28.82 9.33 27.95 9.39L27.95 9.39L27.95 9.39Q27.68 9.87 27.46 10.31L27.46 10.31L27.04 11.15L27.04 11.15Q26.20 12.80 25.53 13.33L25.53 13.33L25.53 13.33Q25.01 13.74 24.44 13.74L24.44 13.74L24.44 13.74Q24.00 13.74 23.78 13.45L23.78 13.45L23.78 13.45Q23.69 13.34 23.68 13.23L23.68 13.23L23.68 13.23Q23.67 13.13 23.73 13.09L23.73 13.09L23.73 13.09Q24.51 12.80 25.01 12.20L25.01 12.20L25.01 12.20Q25.44 11.66 25.87 10.88L25.87 10.88L26.64 9.50L26.21 9.56L26.21 9.56Q25.80 9.63 25.80 9.43L25.80 9.43L25.80 9.43Q25.80 9.22 26.04 9.04L26.04 9.04L26.04 9.04Q26.48 8.72 26.89 8.61L26.89 8.61L27.18 8.54L27.18 8.54Q28.30 6.69 28.89 5.95L28.89 5.95L28.89 5.95Q29.48 5.22 29.97 4.72L29.97 4.72L29.97 4.72Q30.46 4.23 31.00 3.86L31.00 3.86L31.00 3.86Q32.18 3.04 33.33 3.04L33.33 3.04L33.33 3.04Q33.68 3.04 33.80 3.19L33.80 3.19L33.80 3.19Q34.01 3.41 33.93 3.67L33.93 3.67L33.93 3.67Q33.86 3.92 33.69 4.40L33.69 4.40L33.69 4.40Q32.59 7.38 32.35 8.09L32.35 8.09L32.35 8.09Q32.46 8.09 32.55 8.09L32.55 8.09L32.70 8.09L32.70 8.09Q33.47 8.09 33.52 8.24L33.52 8.24L33.52 8.24Q33.54 8.29 33.54 8.41L33.54 8.41L33.54 8.41Q33.54 8.54 33.46 8.70L33.46 8.70L33.46 8.70Q33.38 8.87 33.20 8.98L33.20 8.98L33.20 8.98Q32.84 9.23 31.99 9.27L31.99 9.27L31.99 9.27Q31.52 10.88 31.46 11.49L31.46 11.49L31.46 11.49Q31.39 12.11 31.50 12.32L31.50 12.32L31.50 12.32Q31.60 12.54 31.80 12.54L31.80 12.54L31.80 12.54Q31.99 12.54 32.12 12.50L32.12 12.50L32.12 12.50Q32.24 12.46 32.33 12.41L32.33 12.41L32.51 12.33L32.51 12.33Q32.58 12.29 32.65 12.29L32.65 12.29L32.65 12.29Q32.72 12.29 32.77 12.38L32.77 12.38L32.77 12.38Q32.82 12.48 32.82 12.63L32.82 12.63L32.82 12.63Q32.82 12.78 32.69 12.98L32.69 12.98L32.69 12.98Q32.57 13.19 32.36 13.36L32.36 13.36L32.36 13.36Q31.88 13.74 31.28 13.74L31.28 13.74L31.28 13.74Q30.36 13.74 30.05 12.92L30.05 12.92L30.05 12.92Q29.94 12.63 29.94 12.41L29.94 12.41ZM29.11 7.40L28.57 8.31L28.57 8.31Q29.79 8.15 30.83 8.12L30.83 8.12L30.83 8.12Q31.02 7.53 31.24 6.96L31.24 6.96L31.66 5.87L31.66 5.87Q31.88 5.35 32.09 4.88L32.09 4.88L32.49 4.04L32.49 4.04Q31.07 4.41 29.68 6.49L29.68 6.49L29.68 6.49Q29.39 6.93 29.11 7.40L29.11 7.40ZM34.30 13.40L34.30 13.40L34.30 13.40Q34.13 13.22 34.03 12.94L34.03 12.94L34.03 12.94Q33.92 12.67 33.92 12.30L33.92 12.30L33.92 12.30Q33.92 11.94 34.09 11.32L34.09 11.32L34.09 11.32Q34.25 10.71 34.51 9.92L34.51 9.92L35.09 8.22L35.09 8.22Q36.31 4.66 36.50 2.72L36.50 2.72L36.50 2.72Q36.57 2.15 37.06 2.15L37.06 2.15L37.06 2.15Q37.38 2.15 37.58 2.30L37.58 2.30L37.58 2.30Q37.98 2.60 37.97 2.97L37.97 2.97L37.97 2.97Q37.95 3.34 37.84 3.87L37.84 3.87L37.84 3.87Q37.72 4.40 37.54 5.02L37.54 5.02L37.54 5.02Q37.35 5.65 37.11 6.34L37.11 6.34L36.17 9.12L36.17 9.12Q35.36 11.48 35.36 12.17L35.36 12.17L35.36 12.17Q35.36 12.54 35.66 12.54L35.66 12.54L35.66 12.54Q35.94 12.54 36.18 12.42L36.18 12.42L36.18 12.42Q36.42 12.30 36.48 12.30L36.48 12.30L36.48 12.30Q36.63 12.30 36.63 12.44L36.63 12.44L36.63 12.44Q36.63 13.05 36.00 13.46L36.00 13.46L36.00 13.46Q35.59 13.74 35.24 13.74L35.24 13.74L35.24 13.74Q34.90 13.74 34.69 13.66L34.69 13.66L34.69 13.66Q34.47 13.58 34.30 13.40ZM41.57 4.99L41.57 4.99L41.57 4.99Q41.42 5.15 41.23 5.25L41.23 5.25L41.23 5.25Q41.04 5.35 40.82 5.38L40.82 5.38L40.82 5.38Q40.61 5.40 40.42 5.31L40.42 5.31L40.42 5.31Q40.24 5.22 40.10 5.06L40.10 5.06L40.10 5.06Q39.81 4.72 39.81 4.37L39.81 4.37L39.81 4.37Q39.81 4.02 39.92 3.85L39.92 3.85L39.92 3.85Q40.03 3.67 40.20 3.56L40.20 3.56L40.20 3.56Q40.53 3.35 40.82 3.35L40.82 3.35L40.82 3.35Q41.11 3.35 41.27 3.39L41.27 3.39L41.27 3.39Q41.43 3.43 41.57 3.53L41.57 3.53L41.57 3.53Q41.90 3.75 41.90 4.08L41.90 4.08L41.90 4.08Q41.90 4.40 41.81 4.62L41.81 4.62L41.81 4.62Q41.72 4.83 41.57 4.99ZM40.17 12.39L40.17 12.39L40.17 12.39Q40.35 12.39 40.35 12.63L40.35 12.63L40.35 12.63Q40.35 12.93 40.07 13.26L40.07 13.26L40.07 13.26Q39.66 13.74 38.96 13.74L38.96 13.74L38.96 13.74Q38.17 13.74 37.88 13.10L37.88 13.10L37.88 13.10Q37.77 12.87 37.77 12.55L37.77 12.55L37.77 12.55Q37.77 12.23 37.88 11.84L37.88 11.84L37.88 11.84Q37.99 11.44 38.16 11.01L38.16 11.01L38.16 11.01Q38.33 10.58 38.53 10.13L38.53 10.13L38.89 9.27L38.89 9.27Q39.29 8.31 39.29 8.00L39.29 8.00L39.29 8.00Q39.29 7.69 39.22 7.59L39.22 7.59L39.22 7.59Q39.16 7.49 39.08 7.44L39.08 7.44L38.94 7.34L38.94 7.34Q38.88 7.29 38.88 7.17L38.88 7.17L38.88 7.17Q38.88 7.05 38.97 6.95L38.97 6.95L38.97 6.95Q39.06 6.84 39.21 6.75L39.21 6.75L39.21 6.75Q39.52 6.60 39.93 6.60L39.93 6.60L39.93 6.60Q40.93 6.60 40.93 7.12L40.93 7.12L40.93 7.12Q40.93 7.74 40.61 8.53L40.61 8.53L40.61 8.53Q40.29 9.32 40.07 9.80L40.07 9.80L39.66 10.75L39.66 10.75Q39.20 11.79 39.20 12.24L39.20 12.24L39.20 12.24Q39.20 12.54 39.50 12.54L39.50 12.54L39.50 12.54Q39.80 12.54 39.95 12.47L39.95 12.47L39.95 12.47Q40.10 12.39 40.17 12.39ZM41.83 11.31L41.83 11.31L41.83 11.31Q41.84 10.72 42.02 10.13L42.02 10.13L42.02 10.13Q42.19 9.54 42.48 9.01L42.48 9.01L42.48 9.01Q42.77 8.48 43.17 8.04L43.17 8.04L43.17 8.04Q43.57 7.59 44.04 7.27L44.04 7.27L44.04 7.27Q45.03 6.60 46.12 6.60L46.12 6.60L46.12 6.60Q47.24 6.60 47.64 7.49L47.64 7.49L47.64 7.49Q47.78 7.81 47.77 8.22L47.77 8.22L47.77 8.22Q47.76 8.63 47.64 8.97L47.64 8.97L47.64 8.97Q47.52 9.30 47.33 9.57L47.33 9.57L47.33 9.57Q46.92 10.17 46.49 10.17L46.49 10.17L46.49 10.17Q46.02 10.17 45.79 9.91L45.79 9.91L45.79 9.91Q45.60 9.69 45.67 9.39L45.67 9.39L45.67 9.39Q45.69 9.30 45.79 9.23L45.79 9.23L45.79 9.23Q45.90 9.15 46.05 9.00L46.05 9.00L46.05 9.00Q46.50 8.53 46.52 7.91L46.52 7.91L46.52 7.91Q46.53 7.49 46.00 7.49L46.00 7.49L46.00 7.49Q45.42 7.49 44.80 8.13L44.80 8.13L44.80 8.13Q43.88 9.06 43.50 10.53L43.50 10.53L43.50 10.53Q43.18 11.80 43.63 12.39L43.63 12.39L43.63 12.39Q43.89 12.73 44.35 12.73L44.35 12.73L44.35 12.73Q45.12 12.73 45.84 12.18L45.84 12.18L45.84 12.18Q46.06 12.01 46.20 11.83L46.20 11.83L46.20 11.83Q46.33 11.66 46.45 11.66L46.45 11.66L46.45 11.66Q46.57 11.66 46.65 11.77L46.65 11.77L46.65 11.77Q46.72 11.88 46.72 12.06L46.72 12.06L46.72 12.06Q46.72 12.46 46.36 12.85L46.36 12.85L46.36 12.85Q45.43 13.74 44.13 13.74L44.13 13.74L44.13 13.74Q43.01 13.74 42.40 13.10L42.40 13.10L42.40 13.10Q41.80 12.48 41.83 11.31ZM48.43 11.28L48.43 11.28L48.43 11.28Q48.45 10.68 48.62 10.14L48.62 10.14L48.62 10.14Q48.79 9.60 49.08 9.09L49.08 9.09L49.08 9.09Q49.37 8.58 49.76 8.12L49.76 8.12L49.76 8.12Q50.14 7.67 50.59 7.33L50.59 7.33L50.59 7.33Q51.57 6.60 52.57 6.60L52.57 6.60L52.57 6.60Q53.74 6.60 54.13 7.56L54.13 7.56L54.13 7.56Q54.26 7.89 54.26 8.34L54.26 8.34L54.26 8.34Q54.25 8.78 54.09 9.16L54.09 9.16L54.09 9.16Q53.92 9.54 53.63 9.85L53.63 9.85L53.63 9.85Q53.34 10.17 52.94 10.41L52.94 10.41L52.94 10.41Q52.54 10.66 52.07 10.83L52.07 10.83L52.07 10.83Q51.10 11.17 49.99 11.18L49.99 11.18L49.99 11.18Q49.96 11.28 49.96 11.47L49.96 11.47L49.96 11.47Q49.95 11.66 50.00 11.90L50.00 11.90L50.00 11.90Q50.05 12.13 50.16 12.32L50.16 12.32L50.16 12.32Q50.41 12.73 50.87 12.73L50.87 12.73L50.87 12.73Q51.67 12.73 52.42 12.26L52.42 12.26L52.42 12.26Q52.68 12.11 52.85 11.94L52.85 11.94L52.85 11.94Q53.02 11.77 53.14 11.77L53.14 11.77L53.14 11.77Q53.27 11.77 53.36 11.92L53.36 11.92L53.36 11.92Q53.45 12.07 53.45 12.25L53.45 12.25L53.45 12.25Q53.45 12.61 53.25 12.88L53.25 12.88L53.25 12.88Q52.38 13.74 50.68 13.74L50.68 13.74L50.68 13.74Q49.68 13.74 49.07 13.14L49.07 13.14L49.07 13.14Q48.38 12.46 48.43 11.28ZM52.42 7.51L52.42 7.51L52.42 7.51Q51.70 7.51 51.04 8.49L51.04 8.49L51.04 8.49Q50.48 9.34 50.13 10.50L50.13 10.50L50.13 10.50Q51.28 10.38 52.12 9.60L52.12 9.60L52.12 9.60Q52.89 8.86 52.89 8.18L52.89 8.18L52.89 8.18Q52.89 7.51 52.42 7.51ZM60.24 11.85L60.24 11.85L60.24 11.85Q60.24 12.48 60.68 12.48L60.68 12.48L60.68 12.48Q60.99 12.48 61.19 12.39L61.19 12.39L61.19 12.39Q61.39 12.29 61.46 12.29L61.46 12.29L61.46 12.29Q61.61 12.29 61.61 12.44L61.61 12.44L61.61 12.44Q61.61 13.03 60.99 13.45L60.99 13.45L60.99 13.45Q60.34 13.90 59.66 13.67L59.66 13.67L59.66 13.67Q59.22 13.51 59.01 13.00L59.01 13.00L59.01 13.00Q58.91 12.73 58.91 12.51L58.91 12.51L58.91 12.51Q58.91 12.15 58.97 11.76L58.97 11.76L58.97 11.76Q58.34 13.06 57.39 13.55L57.39 13.55L57.39 13.55Q57.02 13.74 56.59 13.74L56.59 13.74L56.59 13.74Q56.17 13.74 55.86 13.57L55.86 13.57L55.86 13.57Q55.55 13.39 55.33 13.08L55.33 13.08L55.33 13.08Q54.89 12.44 54.93 11.47L54.93 11.47L54.93 11.47Q54.97 10.25 55.64 9.08L55.64 9.08L55.64 9.08Q56.27 7.99 57.22 7.30L57.22 7.30L57.22 7.30Q58.17 6.60 58.99 6.60L58.99 6.60L58.99 6.60Q59.82 6.60 60.33 7.36L60.33 7.36L60.33 7.36Q60.80 6.60 61.16 6.60L61.16 6.60L61.16 6.60Q61.55 6.60 61.75 6.74L61.75 6.74L61.75 6.74Q62.13 7.01 62.02 7.22L62.02 7.22L62.02 7.22Q60.30 10.73 60.25 11.59L60.25 11.59L60.25 11.59Q60.24 11.72 60.24 11.85ZM56.44 11.88L56.44 11.88L56.44 11.88Q56.44 12.70 56.97 12.70L56.97 12.70L56.97 12.70Q57.37 12.70 57.96 12.02L57.96 12.02L57.96 12.02Q58.82 11.01 59.49 9.31L59.49 9.31L59.49 9.31Q59.70 8.78 59.84 8.24L59.84 8.24L59.84 8.24Q59.81 7.78 59.45 7.56L59.45 7.56L59.45 7.56Q59.33 7.49 59.09 7.49L59.09 7.49L59.09 7.49Q58.84 7.49 58.52 7.66L58.52 7.66L58.52 7.66Q58.19 7.84 57.89 8.15L57.89 8.15L57.89 8.15Q57.59 8.46 57.32 8.88L57.32 8.88L57.32 8.88Q57.06 9.30 56.86 9.79L56.86 9.79L56.86 9.79Q56.44 10.84 56.44 11.88Z"></path></g><!----><!----></svg>