<svg data-v-fde0c5aa="" xmlns="http://www.w3.org/2000/svg" viewBox="0 0 300 300" class="iconAbove"><!----><defs data-v-fde0c5aa=""><linearGradient data-v-fde0c5aa="" gradientTransform="rotate(25)" id="c6547ceb-4c82-41e1-aa05-c765c07ba027" x1="0%" y1="0%" x2="100%" y2="0%"><stop data-v-fde0c5aa="" offset="0%" stop-color="#0978A6" stop-opacity="1"></stop><stop data-v-fde0c5aa="" offset="100%" stop-color="#FB9447" stop-opacity="1"></stop></linearGradient></defs><rect data-v-fde0c5aa="" fill="url(#c6547ceb-4c82-41e1-aa05-c765c07ba027)" x="0" y="0" width="300px" height="300px" class="logo-background-square"></rect><defs data-v-fde0c5aa=""><!----></defs><g data-v-fde0c5aa="" id="aa7a2785-68b7-4970-908e-f62ae6bf4025" fill="#ffffff" transform="matrix(3.9447729563618563,0,0,3.9447729563618563,18.895463567516146,160.9132154105195)"><path d="M4.83 13.69L1.68 13.69L1.68 11.73L0.28 11.73L0.28 14.01L1.90 14.95L4.61 14.95L6.23 14.01L6.23 5.08L4.83 5.08ZM14.56 14.01L14.56 8.75L12.94 7.81L10.23 7.81L8.61 8.75L8.61 14.01L10.23 14.95L12.94 14.95ZM9.97 9.03L13.20 9.03L13.20 13.73L9.97 13.73ZM22.75 8.75L21.13 7.81L19.15 7.81L18.16 8.39L17.82 7.81L16.80 7.81L16.80 14.88L18.16 14.88L18.16 9.03L21.39 9.03L21.39 14.88L22.75 14.88ZM33.03 5.08L31.29 5.08L27.79 14.88L29.16 14.88L29.99 12.56L34.33 12.56L35.15 14.88L36.53 14.88ZM32.14 6.47L32.17 6.47L33.88 11.30L30.44 11.30ZM39.55 14.88L40.96 14.88L40.96 13.66L39.28 13.66L39.28 4.66L37.93 4.66L37.93 13.94ZM43.72 7.88L42.36 7.88L42.36 14.88L43.72 14.88ZM42.29 6.16L43.79 6.16L43.79 4.66L42.29 4.66ZM47.32 9.10L51.21 9.10L51.21 7.88L47.59 7.88L45.96 8.82L45.96 13.94L47.59 14.88L51.21 14.88L51.21 13.66L47.32 13.66ZM58.70 13.66L54.53 13.66L54.53 11.86L58.70 11.86L58.70 8.75L57.08 7.81L54.80 7.81L53.17 8.75L53.17 13.94L54.80 14.88L58.70 14.88ZM54.53 9.03L57.34 9.03L57.34 10.64L54.53 10.64ZM62.02 12.01L64.83 12.01L64.83 13.73L62.02 13.73ZM62.29 14.95L63.84 14.95L64.83 14.38L65.83 14.95L66.19 14.95L66.19 8.82L64.57 7.88L61.36 7.88L61.36 9.10L64.83 9.10L64.83 10.79L62.29 10.79L60.66 11.73L60.66 14.01Z"></path></g><defs data-v-fde0c5aa=""><!----></defs><g data-v-fde0c5aa="" id="7d02b29c-fab2-4f6a-8f20-3e16e7632f9d" stroke="none" fill="#ffffff" transform="matrix(1.291331395551283,0,0,1.291331395551283,85.43342775941667,54.945683977686144)"><path d="M49.789 19.489S29.256 51.647 29.256 64.837c0 13.196 10.977 17.52 20.533 17.52 9.553 0 20.955-5.469 20.955-17.52 0-12.049-20.955-45.348-20.955-45.348zm11.053 44.85l-9.543 11.302c-.197.234-.453.371-.726.459-.067.024-.137.027-.204.043-.098.019-.187.062-.285.062-.01 0-.022-.006-.033-.006s-.023.006-.033.006h-.002c-.152 0-.289-.047-.428-.087-.014-.004-.027-.003-.041-.008-.057-.018-.115-.021-.167-.045-.052-.021-.089-.063-.138-.091a1.604 1.604 0 0 1-.391-.297c-.015-.016-.035-.02-.049-.037l-9.539-11.302a1.59 1.59 0 0 1 .188-2.239 1.586 1.586 0 0 1 2.237.189l6.738 7.984V60.178c-.012-.013-.029-.017-.04-.03l-6.295-7.466a1.588 1.588 0 0 1 2.428-2.047l3.906 4.633v-7.792L44.59 42.93a1.587 1.587 0 1 1 2.427-2.049l1.41 1.672v-8.202a1.588 1.588 0 0 1 3.176 0v8.286l1.484-1.756a1.587 1.587 0 1 1 2.425 2.049l-3.91 4.632v7.791l3.975-4.716a1.589 1.589 0 0 1 2.428 2.047l-6.29 7.466c-.031.037-.078.051-.113.086v10.122l6.811-8.067a1.588 1.588 0 1 1 2.429 2.048z"></path></g><!----></svg>