<svg data-v-423bf9ae="" xmlns="http://www.w3.org/2000/svg" viewBox="0 0 384.31489158280004 60" class="font"><!----><!----><!----><g data-v-423bf9ae="" id="5bff7004-ec0f-40b3-a225-f8d3835d4e63" fill="white" transform="matrix(5.830903811703725,0,0,5.830903811703725,-1.632657458185946,-27.1720113496512)"><path d="M4.83 13.69L1.68 13.69L1.68 11.73L0.28 11.73L0.28 14.01L1.90 14.95L4.61 14.95L6.23 14.01L6.23 5.08L4.83 5.08ZM14.56 14.01L14.56 8.75L12.94 7.81L10.23 7.81L8.61 8.75L8.61 14.01L10.23 14.95L12.94 14.95ZM9.97 9.03L13.20 9.03L13.20 13.73L9.97 13.73ZM22.75 8.75L21.13 7.81L19.15 7.81L18.16 8.39L17.82 7.81L16.80 7.81L16.80 14.88L18.16 14.88L18.16 9.03L21.39 9.03L21.39 14.88L22.75 14.88ZM33.03 5.08L31.29 5.08L27.79 14.88L29.16 14.88L29.99 12.56L34.33 12.56L35.15 14.88L36.53 14.88ZM32.14 6.47L32.17 6.47L33.88 11.30L30.44 11.30ZM39.55 14.88L40.96 14.88L40.96 13.66L39.28 13.66L39.28 4.66L37.93 4.66L37.93 13.94ZM43.72 7.88L42.36 7.88L42.36 14.88L43.72 14.88ZM42.29 6.16L43.79 6.16L43.79 4.66L42.29 4.66ZM47.32 9.10L51.21 9.10L51.21 7.88L47.59 7.88L45.96 8.82L45.96 13.94L47.59 14.88L51.21 14.88L51.21 13.66L47.32 13.66ZM58.70 13.66L54.53 13.66L54.53 11.86L58.70 11.86L58.70 8.75L57.08 7.81L54.80 7.81L53.17 8.75L53.17 13.94L54.80 14.88L58.70 14.88ZM54.53 9.03L57.34 9.03L57.34 10.64L54.53 10.64ZM62.02 12.01L64.83 12.01L64.83 13.73L62.02 13.73ZM62.29 14.95L63.84 14.95L64.83 14.38L65.83 14.95L66.19 14.95L66.19 8.82L64.57 7.88L61.36 7.88L61.36 9.10L64.83 9.10L64.83 10.79L62.29 10.79L60.66 11.73L60.66 14.01Z"></path></g><!----><!----></svg>